# xmcd CD database file
#
# Track frame offsets:
#	150
#	18272
#	40927
#	67052
#	87977
#	122205
#	139560
#	165265
#
# Disc length: 2507 seconds
#
# Revision: 1
# Processed by: cddbd v1.5.1PL0 Copyright (c) Steve Scherf et al.
# Submitted via: CDex 1.51
#
DISCID=6209c908
DTITLE=George Lewis - George Lewis at Manny's Tavern 1949
DYEAR=1995
DGENRE=Jazz
TTITLE0=Weary Blues
TTITLE1=All the Girls Go Crazy
TTITLE2=Bugle Call Rag
TTITLE3=2.19 Blues
TTITLE4=St. Louis Blues
TTITLE5=None of My Jelly Roll
TTITLE6=Tishomingo Blues
TTITLE7=Tin Roof Blues
EXTD=YEAR: 1995
EXTT0=
EXTT1=
EXTT2=
EXTT3=
EXTT4=
EXTT5=
EXTT6=
EXTT7=
PLAYORDER=
